<?xml version="1.0" encoding="UTF-8" standalone="no"?>
<svg
   viewBox="0 0 1500 1300"
   version="1.1"
   id="svg46"
   sodipodi:docname="logo.svg"
   width="1500"
   height="1300"
   inkscape:version="1.1.1 (3bf5ae0d25, 2021-09-20)"
   xmlns:inkscape="http://www.inkscape.org/namespaces/inkscape"
   xmlns:sodipodi="http://sodipodi.sourceforge.net/DTD/sodipodi-0.dtd"
   xmlns="http://www.w3.org/2000/svg"
   xmlns:svg="http://www.w3.org/2000/svg"
   xmlns:rdf="http://www.w3.org/1999/02/22-rdf-syntax-ns#"
   xmlns:cc="http://creativecommons.org/ns#"
   xmlns:dc="http://purl.org/dc/elements/1.1/">
  <sodipodi:namedview
     id="namedview48"
     pagecolor="#ffffff"
     bordercolor="#666666"
     borderopacity="1.0"
     inkscape:pageshadow="2"
     inkscape:pageopacity="0.0"
     inkscape:pagecheckerboard="0"
     showgrid="false"
     width="1700px"
     inkscape:zoom="0.38315789"
     inkscape:cx="720.32967"
     inkscape:cy="950"
     inkscape:window-width="1920"
     inkscape:window-height="1137"
     inkscape:window-x="1912"
     inkscape:window-y="-8"
     inkscape:window-maximized="1"
     inkscape:current-layer="svg46" />
  <defs
     id="defs22">
    <style
       id="style2">.cls-1{fill:none;}.cls-2{fill:url(#Безымянный_градиент_11);}.cls-3{fill:url(#Безымянный_градиент_21);}.cls-4{fill:#7c5147;}.cls-5{fill:#fff;}</style>
    <radialGradient
       id="Безымянный_градиент_11"
       cx="917.23999"
       cy="989.59998"
       r="576.09998"
       gradientUnits="userSpaceOnUse">
      <stop
         offset="0"
         stop-color="#f3e7ae"
         id="stop4" />
      <stop
         offset="0.3"
         stop-color="#f7e497"
         id="stop6" />
      <stop
         offset="0.6"
         stop-color="#f4dc83"
         id="stop8" />
      <stop
         offset="1"
         stop-color="#e0ba3f"
         id="stop10" />
    </radialGradient>
    <linearGradient
       id="Безымянный_градиент_21"
       x1="1057.47"
       y1="1205.38"
       x2="1057.47"
       y2="736.39001"
       gradientUnits="userSpaceOnUse">
      <stop
         offset="0"
         stop-color="#a65cff"
         id="stop13" />
      <stop
         offset="0.3"
         stop-color="#a355ff"
         id="stop15" />
      <stop
         offset="0.6"
         stop-color="#9c48ff"
         id="stop17" />
      <stop
         offset="1"
         stop-color="#9834ff"
         id="stop19" />
    </linearGradient>
  </defs>
  <title
     id="title24">PepinoLogo</title>
  <g
     id="Слой_2"
     data-name="Слой 2"
     transform="translate(-305.35714,-300.13736)">
    <g
       id="Слой_1-2"
       data-name="Слой 1">
      <rect
         class="cls-1"
         width="1900"
         height="1900"
         id="rect26"
         x="0"
         y="0" />
      <path
         class="cls-2"
         d="m 1493.35,989.6 a 584.15,584.15 0 0 1 -7.69,94.26 c -46,279.2 -285,481.83 -568.43,481.83 -283,0 -522,-202.35 -568.29,-481.08 a 582.22,582.22 0 0 1 -7.81,-95 c 0,-127.92 41.06,-249.05 118.7,-350.28 C 569.9,495.82 736.6,413.5 917.23,413.5 c 180.42,0 347,82.15 457.08,225.39 77.86,101.32 119.04,222.61 119.04,350.71 z"
         id="path28"
         style="fill:url(#%D0%91%D0%B5%D0%B7%D1%8B%D0%BC%D1%8F%D0%BD%D0%BD%D1%8B%D0%B9_%D0%B3%D1%80%D0%B0%D0%B4%D0%B8%D0%B5%D0%BD%D1%82_11)" />
      <path
         class="cls-3"
         d="m 1781.33,689.64 a 1.39,1.39 0 0 0 -0.1,-0.28 l -5.7,-18.37 c -0.76,-2.34 -19,-58.37 -79.68,-67.1 -37.2,-5.31 -80.24,17.46 -97.82,30.22 -25.15,18.28 -46.23,30.19 -63.82,37.64 0.14,-0.1 0.31,-0.19 0.45,-0.31 l 0.26,-0.14 c 0.31,-0.17 0.63,-0.4 0.94,-0.57 0.31,-0.17 0.53,-0.37 0.79,-0.54 1.34,-0.83 2.65,-1.68 4,-2.61 a 192.65,192.65 0 0 0 24.67,-20.16 270.81,270.81 0 0 0 20.68,-22.58 q 4.79,-5.83 9.56,-12.22 c 58.37,-78.25 52,-144.18 36.33,-185.72 -16.92,-44.86 -40.54,-63.91 -49,-72 l -30.11,-25.16 a 8.27,8.27 0 0 0 -0.93,-0.8 l -3.1,-2.61 -0.62,-0.49 a 0.94,0.94 0 0 0 -0.21,-0.17 l 10.35,44.36 c 10.36,44.29 -10.89,57.14 -46.54,74.37 -7,3.36 -14.22,6.86 -20.67,10.7 -57.89,25.78 -94.73,59.36 -109.57,99.79 a 113.93,113.93 0 0 0 -7,36.22 c -0.09,3.27 0,6.42 0.13,9.47 a 111.33,111.33 0 0 0 5.94,30 53.65,53.65 0 0 0 2.36,5.61 v 0 c -2.79,1 -5.63,2 -8.46,2.94 A 1414,1414 0 0 1 916.6,714.8 1412.91,1412.91 0 0 1 459.72,639.43 c -1.1,-0.36 -2.17,-0.75 -3.27,-1.15 -2,-0.67 -4,-1.33 -6,-2 -5.48,7.31 -10.79,14.7 -15.84,22.19 -0.09,0 -0.05,0 -0.05,0 -66.25,96.9 -101.06,209.78 -101.06,328.37 a 584.42,584.42 0 0 0 5.85,82.59 c 0.45,3.23 0.88,6.46 1.42,9.66 2.6,1.19 5.22,2.34 7.83,3.5 179.09,79.57 370,119.87 567.86,119.87 198.4,0 389.93,-40.56 569.49,-120.63 2.62,-1.15 5.23,-2.31 7.85,-3.5 q 2.79,-17.8 4.51,-36 c 1.73,-18.42 2.62,-37 2.62,-55.53 0,-79.41 -11.22,-174.07 -5.16,-168.93 24.27,20.68 55.19,28.69 83.67,28.69 a 99.37,99.37 0 0 0 12.57,-0.81 c 40,-4.87 70.6,-32.94 81.76,-75 20,-75.29 85.21,-79.84 87.86,-80 l 19.57,-0.92 h 0.19 a 0.73,0.73 0 0 1 -0.06,-0.19 z m -637.42,360.1 c -28.36,50.31 -114.69,36.47 -173.55,19.83 -23.51,-6.64 -42.05,-20.71 -53.12,-38.38 -11.06,17.67 -29.61,31.74 -53.11,38.38 -58.86,16.64 -145.19,30.48 -173.55,-19.83 -36.92,-65.5 -26.29,-157.85 -4.94,-191.83 5.25,-8.35 16.08,-12.73 26.78,-10.85 100.26,17.6 175.85,81 200.85,104.36 a 45,45 0 0 1 4,4.22 46.36,46.36 0 0 1 4,-4.22 c 25,-23.36 100.6,-86.76 200.86,-104.36 10.7,-1.88 21.53,2.5 26.78,10.85 21.28,33.98 31.92,126.33 -5,191.83 z M 1439.59,681 l -19.33,-2.41 3,-19.87 c 0,0 0,-1.25 0.1,-3.5 0.74,-16.26 9.21,-85.69 95.39,-133.83 a 282.45,282.45 0 0 0 49.14,-34.71 c 18.56,-16.44 25.21,-27.41 23,-47.43 a 48.33,48.33 0 0 1 -9,47.37 c -44.73,53.11 -141.93,62.94 -140.77,194.55 z m 172.57,31.17 c -60.63,66.92 -106.86,66.38 -128,60.81 -8.3,-2.18 -12.73,-5.14 -12.73,-5.14 v -23.13 a 12.77,12.77 0 0 0 1.3,0.54 c 8.85,3.59 62.16,21.75 115.8,-31.7 61,-60.85 109.52,-57.89 123,-52.31 0,0 -50.43,-3.13 -99.37,50.89 z"
         id="path30"
         style="fill:url(#%D0%91%D0%B5%D0%B7%D1%8B%D0%BC%D1%8F%D0%BD%D0%BD%D1%8B%D0%B9_%D0%B3%D1%80%D0%B0%D0%B4%D0%B8%D0%B5%D0%BD%D1%82_21)" />
      <path
         class="cls-4"
         d="m 917.24,1385.24 c 46.29,0 83.82,-13 83.82,-29 H 833.42 c 0,16.01 37.58,29 83.82,29 z"
         id="path32" />
      <path
         class="cls-5"
         d="m 1148.85,857.91 c -5.25,-8.35 -16.08,-12.73 -26.78,-10.85 -100.26,17.6 -175.85,81 -200.86,104.36 a 46.36,46.36 0 0 0 -4,4.22 45,45 0 0 0 -4,-4.22 c -25,-23.36 -100.59,-86.76 -200.85,-104.36 -10.7,-1.88 -21.53,2.5 -26.78,10.85 -21.35,34 -32,126.33 4.94,191.83 28.36,50.31 114.69,36.47 173.55,19.83 23.5,-6.64 42,-20.71 53.11,-38.38 11.07,17.67 29.61,31.74 53.12,38.38 58.86,16.64 145.19,30.48 173.55,-19.83 36.98,-65.5 26.34,-157.85 5,-191.83 z"
         id="path34" />
      <path
         class="cls-4"
         d="m 1193.86,941.49 c -0.78,-38.89 -9.49,-75.23 -23.3,-97.22 -9,-14.36 -25.71,-23.28 -43.54,-23.28 a 54.71,54.71 0 0 0 -9.39,0.82 c -92.3,16.2 -164.23,67.84 -200.39,98.79 -36.15,-31 -108.08,-82.59 -200.39,-98.79 a 54.6,54.6 0 0 0 -9.38,-0.82 c -17.83,0 -34.52,8.92 -43.54,23.28 -13.81,22 -22.52,58.33 -23.3,97.22 -0.9,44.74 8.91,87.65 27.62,120.84 9.92,17.6 25.22,30.6 45.48,38.64 15.85,6.29 34.92,9.48 56.67,9.48 28.78,0 62.66,-5.45 100.7,-16.21 a 122,122 0 0 0 46.14,-24.36 122.07,122.07 0 0 0 46.15,24.36 c 38,10.76 71.92,16.21 100.7,16.21 21.75,0 40.82,-3.19 56.67,-9.48 20.26,-8 35.56,-21 45.48,-38.64 18.76,-33.19 28.52,-76.1 27.62,-120.84 z m -49.95,108.25 c -14.83,26.3 -45.51,35.07 -79.82,35.07 -29.82,0 -62.39,-6.63 -89.68,-14.12 20.92,-6.35 40.28,-26.56 48.48,-53.43 11.25,-36.81 -2.7,-72.14 -31.17,-78.91 -28.47,-6.77 -60.65,17.6 -71.9,54.42 a 91.57,91.57 0 0 0 -2.58,10.72 89.54,89.54 0 0 0 -2.57,-10.72 c -11.25,-36.82 -43.44,-61.18 -71.91,-54.42 -28.47,6.76 -42.41,42.1 -31.17,78.91 8.21,26.87 27.57,47.08 48.49,53.43 -27.3,7.5 -59.85,14.12 -89.68,14.12 -34.31,0 -65,-8.77 -79.82,-35.07 -36.92,-65.5 -26.29,-157.85 -4.94,-191.83 4.44,-7.06 12.86,-11.28 21.83,-11.28 a 28.62,28.62 0 0 1 4.95,0.43 c 100.26,17.6 175.85,81 200.85,104.36 a 45,45 0 0 1 4,4.22 46.36,46.36 0 0 1 4,-4.22 c 25,-23.36 100.6,-86.76 200.86,-104.36 a 28.62,28.62 0 0 1 5,-0.43 c 9,0 17.39,4.22 21.83,11.28 21.23,33.98 31.87,126.33 -5.05,191.83 z"
         id="path36" />
      <path
         class="cls-4"
         d="m 1801.14,701.88 a 219.66,219.66 0 0 1 -14.09,-34.59 c -2.15,-6.73 -23,-65.82 -89.49,-75.39 a 91.46,91.46 0 0 0 -13.19,-0.91 c -26.49,0 -53.67,10.43 -73.35,20.93 55.4,-79.17 48.34,-146.34 32.18,-189.3 -7.77,-20.61 -18.45,-40.23 -32.75,-57.05 -12.69,-14.9 -28.16,-27.2 -43.29,-39.52 -10.63,-8.67 -21.78,-17.73 -35.23,-21.75 l -1.57,-0.47 16.09,69 c 8,34.09 -3.93,43.24 -40,60.68 -6.27,3 -14,6.71 -21,10.85 -60.59,27.1 -99.41,62.88 -115.38,106.42 a 128,128 0 0 0 -6.74,27.86 c -2.32,-2.51 -4.65,-5 -7,-7.48 a 610.2,610.2 0 0 0 -166.5,-123.59 585,585 0 0 0 -54.56,-24.22 v 0 a 67.51,67.51 0 0 1 54.8,-4.06 c 0,0 -47.82,-47.52 -159.68,-64.39 37.41,-7 81.35,4.65 83.43,5.18 C 975.3,259.94 917.24,349.8 917.24,349.8 c 0,0 -58,-89.86 -196.53,10.27 2.08,-0.53 46,-12.18 83.43,-5.18 a 417.61,417.61 0 0 0 -80.2,20 c -55,20 -79.49,44.38 -79.49,44.38 a 67.51,67.51 0 0 1 54.76,4 Q 671.4,434.03 644.4,447.66 A 611.82,611.82 0 0 0 435.65,620.77 c -81.74,106.59 -125,234.13 -125,368.84 a 612,612 0 0 0 8.24,99.95 c 23.25,140 95.73,268.28 204.19,361.1 a 606.59,606.59 0 0 0 788.61,-0.26 c 108.5,-93 181,-221.38 204.06,-361.59 a 614.46,614.46 0 0 0 -12,-255 c 23.55,16.19 49.93,24.94 75.73,24.94 a 110.14,110.14 0 0 0 14,-0.88 c 45.12,-5.49 79.51,-36.87 92,-83.93 7.48,-28 22.46,-48.44 44.6,-60.69 a 84.41,84.41 0 0 1 32.26,-10.35 l 19.13,-0.9 19.87,0.33 z M 472,624 a 582.17,582.17 0 0 1 60.88,-63.77 q 14.7,-13.22 30.16,-25.31 c 58.12,-8.62 141,8.64 141,8.64 -12.94,-27.49 -54,-43.45 -79.13,-50.88 A 565.69,565.69 0 0 1 704.07,454 559.66,559.66 0 0 1 759.32,435.32 v 0 c 141.38,55.2 157.89,183.07 157.89,183.07 0,0 16.51,-127.87 157.89,-183.07 v 0 a 561,561 0 0 1 55.25,18.68 v 0 a 565.94,565.94 0 0 1 79.09,38.74 c -25.13,7.44 -66.17,23.39 -79.1,50.87 0,0 82.9,-17.26 141,-8.64 q 15.48,12.06 30.2,25.31 a 585,585 0 0 1 60.93,63.72 c 1.81,2.21 3.6,4.41 5.38,6.64 0.91,1.14 1.79,2.3 2.69,3.44 A 1408.14,1408.14 0 0 1 916.62,708.77 1407.39,1407.39 0 0 1 463.69,634.39 Q 467.8,629.14 472,624 Z m 1008,489.21 a 568.94,568.94 0 0 1 -16.2,59.3 v 0 c -77,232.4 -294.18,393.16 -546.61,393.16 -252.11,0 -469.27,-160.58 -546.38,-392.62 a 2.27,2.27 0 0 1 -0.22,-0.54 592.47,592.47 0 0 1 -16.77,-62 c -1.47,-6.89 -2.78,-13.85 -4,-20.83 178.74,78.81 369.36,118.78 566.63,118.78 197.88,0 389,-40.23 568.3,-119.55 q -2.07,12.29 -4.7,24.3 z m 11.08,-73.47 c -1,11.73 -2.37,23.43 -4.08,35 l -3.53,1.57 c -178.73,79.69 -369.5,120.1 -567,120.1 -196.92,0 -387.15,-40.16 -565.41,-119.36 l -3.55,-1.57 c -0.61,-4.06 -1.18,-8.12 -1.68,-12.2 a 575.47,575.47 0 0 1 -4.7,-73.69 c 0,-118.67 35.33,-231.52 102.43,-328 4,-5.76 8.13,-11.43 12.35,-17.06 0.63,0.23 1.26,0.46 1.85,0.65 a 1419.58,1419.58 0 0 0 458.84,75.69 1420.53,1420.53 0 0 0 459.83,-76 l 1.89,-0.66 q 6.62,8.82 12.83,17.77 c 1.39,2 2.74,4 4.09,6 q 6.54,9.66 12.63,19.53 a 569.63,569.63 0 0 1 85.45,302.11 c 0.02,16.69 -0.73,33.44 -2.19,50.12 z m 290.09,-349.88 -19.56,0.92 c -2.64,0.19 -67.84,4.74 -87.86,80 -11.17,42.08 -41.73,70.15 -81.76,75 a 99.25,99.25 0 0 1 -12.57,0.81 c -28.48,0 -56.93,-11.62 -81.21,-32.27 v 0 q -6.26,-21 -14.13,-41.4 c -3.58,-9.36 -7.35,-18.57 -11.42,-27.69 a 590.1,590.1 0 0 0 -33.12,-64.3 c -5.14,-8.68 -10.55,-17.32 -16.22,-25.76 q -6.36,-9.72 -13.28,-19.23 c 0,0 0,0 -0.06,-0.09 q -5.64,-7.85 -11.54,-15.54 -11.51,-15 -24,-29.18 a 114.54,114.54 0 0 1 7,-36.22 c 14.84,-40.44 51.69,-74 109.57,-99.79 6.45,-3.85 13.68,-7.34 20.67,-10.69 35.64,-17.23 56.9,-30.08 46.54,-74.38 l -10.35,-44.36 a 0.48,0.48 0 0 1 0.2,0.18 l 0.64,0.48 3.09,2.62 a 7.24,7.24 0 0 1 0.93,0.79 l 30.11,25.16 c 8.46,8.05 32.08,27.1 49,71.95 15.63,41.54 22.05,107.49 -36.32,185.73 q -4.79,6.39 -9.56,12.22 a 272.55,272.55 0 0 1 -20.67,22.58 193.5,193.5 0 0 1 -24.67,20.16 c -1.34,0.93 -2.66,1.78 -4,2.62 -0.27,0.16 -0.55,0.34 -0.81,0.53 -0.26,0.19 -0.62,0.39 -0.93,0.57 a 1.26,1.26 0 0 1 -0.26,0.13 2.91,2.91 0 0 1 -0.46,0.32 c 17.6,-7.44 38.68,-19.35 63.84,-37.64 17.56,-12.76 60.61,-35.53 97.8,-30.21 60.68,8.72 78.92,64.76 79.68,67.09 l 5.7,18.38 a 1.22,1.22 0 0 1 0.11,0.26 1.33,1.33 0 0 0 0.08,0.23 z"
         id="path38" />
      <path
         class="cls-5"
         d="m 1612.16,712.13 c 48.94,-54 99.37,-50.89 99.37,-50.89 -13.5,-5.58 -62,-8.54 -123,52.31 -53.64,53.45 -107,35.29 -115.8,31.7 v 0 c 4.07,9.12 7.84,18.33 11.42,27.69 v 0 c 21.15,5.57 67.38,6.11 128.01,-60.81 z"
         id="path40" />
      <path
         class="cls-5"
         d="m 1582,486.58 a 48.33,48.33 0 0 0 9,-47.37 c 2.22,20 -4.43,31 -23,47.43 a 282.45,282.45 0 0 1 -49.14,34.71 c -86.18,48.14 -94.65,117.57 -95.39,133.83 v 0 c 5.66,8.44 11.07,17.07 16.21,25.75 v 0 l 1.59,0.17 C 1440,549.52 1537.22,539.69 1582,486.58 Z"
         id="path42" />
    </g>
  </g>
  <metadata
     id="metadata865">
    <rdf:RDF>
      <cc:Work
         rdf:about="">
        <dc:title>PepinoLogo</dc:title>
      </cc:Work>
    </rdf:RDF>
  </metadata>
</svg>
